<svg xmlns="http://www.w3.org/2000/svg" width="117.349" height="90.562" viewBox="0 0 117.349 90.562"><defs><style>.a,.c{fill:#fff;}.b{fill:none;}.c{stroke:#fff;stroke-linecap:round;stroke-linejoin:round;stroke-width:3px;}</style></defs><g transform="translate(-2843.76 -521.829)"><path class="a" d="M2893.779,575.043c0-2.576-2.422-4.722-6.611-5.982.827-.888,1.679-1.844,2.534-2.865,6.768-8.084,10.2-15.855,10.2-23.1a21.271,21.271,0,0,0-40.864-8.279,1.625,1.625,0,1,0,2.994,1.267,18.02,18.02,0,0,1,34.619,7.012c0,13.435-14.1,26.306-18.018,29.617-.862-.728-2.219-1.921-3.811-3.481a1.615,1.615,0,0,0-.723-.718c-5.613-5.652-13.482-15.368-13.482-25.418a1.626,1.626,0,0,0-3.252,0c0,7.244,3.433,15.015,10.2,23.1.854,1.02,1.706,1.976,2.533,2.864-4.191,1.259-6.611,3.4-6.611,5.983,0,2.176,1.766,4.095,4.972,5.4a30.711,30.711,0,0,0,20.347,0C2892.013,579.138,2893.779,577.219,2893.779,575.043Zm-15.146,3.883c-7.7,0-11.893-2.565-11.893-3.883,0-.859,1.909-2.431,5.987-3.3a63.606,63.606,0,0,0,4.912,4.358,1.626,1.626,0,0,0,1.99,0,62.939,62.939,0,0,0,4.911-4.358,14.9,14.9,0,0,1,4.492,1.626c.936.57,1.5,1.2,1.5,1.672C2890.527,576.361,2886.329,578.926,2878.633,578.926Z"/><path class="a" d="M2888.094,543.1a9.46,9.46,0,1,0-9.46,9.46A9.471,9.471,0,0,0,2888.094,543.1Zm-15.669,0a6.209,6.209,0,1,1,6.209,6.209A6.216,6.216,0,0,1,2872.425,543.1Z"/><path class="a" d="M2953.137,542.951a3.591,3.591,0,0,0-.63-.564A5.613,5.613,0,0,0,2951,541.7c-.094-.031-.207-.069-.3-.1a10.882,10.882,0,0,1,1.005-3.392c1-2.465,1-4.331-.008-5.545a3.213,3.213,0,0,0-3.236-.987,6.9,6.9,0,0,0-4.831,4.691c-.444,1.51-1.438,2.148-2.814,3.03a9.08,9.08,0,0,0-3.953,4.082,22.083,22.083,0,0,0-.929,2.774c-.774,2.713-1.285,4.506-4.722,5.055-.272.044-.536.082-.789.12-2.794.41-5.434.8-7.282,6.08-.689,1.967-1.175,1.847-2.787,1.448a5.935,5.935,0,0,0-2.331-.252,12.428,12.428,0,0,0-1.661.435,10.415,10.415,0,0,1-2.922.606,2.807,2.807,0,0,1,.048-.791c.41-2.4-.46-4.35-2.328-5.215-2.587-1.2-6.462.067-8.819,2.878-.964,1.149-1.585,2.008-2.084,2.7a5.658,5.658,0,0,1-3.172,2.6c-.7.3-1.251.032-2.443-.693a6.608,6.608,0,0,0-2.648-1.064c-1.126,2.163-2.026,4.664-3.23,6.708a19.324,19.324,0,0,0,2.3-2.524l.474-.577a1.331,1.331,0,0,1,.192-.2,5.916,5.916,0,0,1,1.122.59c1.271.773,3.192,1.941,5.584.915a8.852,8.852,0,0,0,4.6-3.749c.467-.646,1.048-1.449,1.932-2.5,1.557-1.857,3.811-2.4,4.741-1.967.147.068.595.275.383,1.516-.3,1.773.039,3.107,1.015,3.965,1.693,1.487,4.331.677,6.257.085.441-.135.94-.288,1.158-.321a5.262,5.262,0,0,1,1,.189c1.667.412,5.135,1.267,6.856-3.651,1.162-3.318,2.012-3.443,4.536-3.814.268-.039.546-.08.834-.126,5.6-.9,6.644-4.562,7.485-7.507a19.1,19.1,0,0,1,.777-2.35,6,6,0,0,1,2.654-2.555c1.537-.986,3.451-2.213,4.257-4.954a3.541,3.541,0,0,1,2.089-2.261,6,6,0,0,1-.5,1.835c-1.293,3.174-1.559,4.926-.948,6.251a3.535,3.535,0,0,0,2.346,1.8,3.034,3.034,0,0,1,.62.247s.01.009.029.03a1.719,1.719,0,1,0,2.569-2.285Z"/><path class="a" d="M2957.7,560.053c-.484-.6-.958-1.14-1.417-1.662-2.082-2.373-2.705-3.264-2.1-4.744a9,9,0,0,0,.36-1.071,1.719,1.719,0,1,0-3.318-.9,5.954,5.954,0,0,1-.225.673c-1.457,3.574.657,5.982,2.7,8.311.436.5.887,1.01,1.326,1.554a14.373,14.373,0,0,1,2.651,6.393c-3.556-.924-5.542-2.573-5.905-4.908l-.1-.62c-.418-2.755-.852-5.6-3.267-6.207a5.682,5.682,0,0,0-4.76,1.225,4.364,4.364,0,0,0-1.542,3.8c.042.462.1.948.17,1.461.23,1.793.577,4.5-.423,5.187-2.474,1.692-2.739,4.325-3.021,7.111-.06.6-.123,1.227-.209,1.872a3.412,3.412,0,0,0,1.012,3.311c1.5,1.247,3.663.534,5.4-.04.386-.127.75-.248,1.019-.315.622-.155,1.5.944,2.761,3.464a19.815,19.815,0,0,0,1.139,1.927c1.193,1.842,2.134,3.3,1.076,8.265-.462,2.166-1.133,2.874-1.348,2.99a1.135,1.135,0,0,1-.28-1.183c.763-2.48.745-4.4-.055-5.72A3.365,3.365,0,0,0,2947,588.64a2.606,2.606,0,0,0-2.374.521c-.179.143-.655.523-3.056.933-2.7.46-3.217.032-4.478-1a16.157,16.157,0,0,0-2.273-1.623,3.553,3.553,0,0,0-3.615-.315c-2.122,1.143-2.421,4.393-2.734,9.6a2.134,2.134,0,0,1-.443,1.439c-.547.443-2.289.177-3.689-.036a14.4,14.4,0,0,0-5.265-.147,8.806,8.806,0,0,1-5.386-.563,6.708,6.708,0,0,0-2.248-.541c-1.8,0-2.293,1.744-2.5,2.489a3.963,3.963,0,0,1-.321.882,2.463,2.463,0,0,1-1.085-.208,7.157,7.157,0,0,0-6.932.943,3.385,3.385,0,0,1-1.655.728c-1.549,0-5.256-.393-6.241-4.035s-3.832-3.93-5.36-4.079c-.168-.017-.37-.036-.539-.06-.614-3.578-4.336-3.752-9-3.969-3.084-.144-4.5.687-4.9,2.867-.013.075-.031.17-.046.236a1.888,1.888,0,0,1-.381.13c-2.169.542-4.4-2.2-4.668-3.03-.458-1.416-2.054-3.644-7.6-2.654-3.086.551-3.286,3.567-3.393,5.188-.016.238-.036.547-.065.8-2.09.182-3.055,2.367-3.708,3.93a8.289,8.289,0,0,0-4.2-5.252c-.726-.4-1.6-1.062-1.642-1.935a1.647,1.647,0,0,1,.359-1.078c1.267.032,5.015-.083,6.577-2.449.655-.992,1.142-2.708-.257-5.249a6.109,6.109,0,0,1-.721-3.994,1.719,1.719,0,1,0-3.4-.514,9.556,9.556,0,0,0,1.108,6.167c.433.785.582,1.419.4,1.7-.484.733-2.763,1-3.792.9-1.613-.161-3,1.408-3.485,2.966-.3.947-.939,4.217,3.19,6.5a5.222,5.222,0,0,1,2.751,3.925c.276,1.092.692,2.741,2.459,3.1,2.2.439,3.146-1.826,3.77-3.325a8.224,8.224,0,0,1,1-1.947,2.631,2.631,0,0,0,1.913-.606c1-.851,1.091-2.208,1.17-3.405.111-1.681.258-1.975.567-2.03,2.49-.445,3.6-.035,3.722.327.762,2.356,4.55,6.363,8.773,5.308a3.5,3.5,0,0,0,2.975-3.081l0-.011a6.565,6.565,0,0,1,1.36-.042,24.47,24.47,0,0,1,5.082.539c.663.212.678.368.716.744.24,2.407,2.489,2.627,3.571,2.732,1.429.14,2.022.249,2.375,1.555,1.649,6.1,7.734,6.576,9.56,6.576a6.4,6.4,0,0,0,3.483-1.253c1.234-.774,2.049-1.286,3.965-.613a4.7,4.7,0,0,0,3.819.018,4.209,4.209,0,0,0,1.969-2.771l.345.123a12.084,12.084,0,0,0,7.318.68,11.88,11.88,0,0,1,3.981.194c2.282.347,4.642.706,6.368-.689a5.174,5.174,0,0,0,1.713-3.908c.121-2.018.34-5.667.892-6.667a2.473,2.473,0,0,1,.306.154,12.857,12.857,0,0,1,1.813,1.3c1.81,1.483,3.29,2.4,7.236,1.73a10.38,10.38,0,0,0,4.294-1.39,5.168,5.168,0,0,1-.331,2.845,4.615,4.615,0,0,0,1.056,4.554,3.437,3.437,0,0,0,3.44.956c1.26-.368,2.938-1.636,3.78-5.589,1.355-6.358-.123-8.642-1.552-10.85a16.317,16.317,0,0,1-.95-1.6c-1.151-2.3-3.08-6.159-6.671-5.262-.392.1-.816.238-1.264.386a14.161,14.161,0,0,1-1.932.537c0-.028.007-.058.011-.089.093-.7.159-1.352.223-1.982.261-2.585.435-3.862,1.541-4.618,2.736-1.873,2.248-5.681,1.891-8.462-.061-.482-.119-.936-.156-1.336a.94.94,0,0,1,.355-.88,2.442,2.442,0,0,1,1.6-.515,12.472,12.472,0,0,1,.79,3.4l.1.632c.434,2.782,2.408,6.415,9.354,7.925a2.6,2.6,0,0,0,2.885-1.153C2962.205,568.417,2959.632,562.444,2957.7,560.053Z"/><path class="a" d="M2853.214,570.817a1.722,1.722,0,0,0,1.675-2.111c-.162-.691-.5-2.127-.026-2.744a3.494,3.494,0,0,1,2.517-.753c4.989-.175,6.6-2.43,8.083-4.662-.426-1.41-.539-2.983-1.289-4.116-.585.726-1.053,1.427-1.469,2.054-1.357,2.045-2.1,3.17-5.445,3.288-2.4.084-4.127.79-5.128,2.1-1.459,1.908-.873,4.412-.591,5.616A1.72,1.72,0,0,0,2853.214,570.817Z"/><path class="b" d="M2887.087,596.261h-35.613a3.226,3.226,0,1,0,0,6.452h33.836l.128-.51-.128.51h1.648v3.226h-1.333a1.624,1.624,0,0,0-.3-3.22l-.013,0-.174.67.167-.67a1.623,1.623,0,0,0-.277,3.218h-33.557a3.226,3.226,0,1,0,0,6.452h33.871a8.053,8.053,0,0,0,8.016-7.581A11.3,11.3,0,0,1,2887.087,596.261Z"/><line class="c" x2="32.333" transform="translate(2892.667 575.229)"/><line class="c" x2="21.333" y2="11.667" transform="translate(2890 578.563)"/><line class="c" x1="2.333" y2="6.667" transform="translate(2870.333 580.563)"/><line class="c" x2="7" y2="9.333" transform="translate(2883.667 580.563)"/></g></svg>