<svg xmlns="http://www.w3.org/2000/svg" width="105.036" height="105" viewBox="0 0 105.036 105"><defs><style>.a{fill:#fff;}</style></defs><g transform="translate(-3201.61 -514.61)"><path class="a" d="M3299.739,617.891a1.715,1.715,0,0,1,1.323-1.668h-4.613V578.964h-10.162v37.259H3282.9V585.739h-10.161v30.484h-3.387v-23.71h-10.161v23.71H3255.8V599.287h-10.162v16.936h-4.663a1.716,1.716,0,0,1-.4,3.387h60.875A1.719,1.719,0,0,1,3299.739,617.891Zm-47.323-1.668h-3.387V602.674h3.387Zm13.549,0h-3.387V595.9h3.387Zm13.548,0h-3.387v-27.1h3.387Zm13.549,0h-3.388V582.352h3.388Z"/><path class="a" d="M3304.927,560.277a1.719,1.719,0,0,1,1.683,1.37V548.255l-13.508,1.69a1.713,1.713,0,0,1,.507,3.349l7.3-.911-1.595,1.937a108.055,108.055,0,0,1-45.831,32.6,1.713,1.713,0,0,1,1.495,3.059,111.456,111.456,0,0,0,46.949-33.508l1.3-1.578v6.954A1.713,1.713,0,0,1,3304.927,560.277Z"/><path class="a" d="M3228.707,536.626a16.982,16.982,0,0,1,3.545.382,1.716,1.716,0,0,1,.324-3.394,20.4,20.4,0,1,0,14.479,11.26,1.687,1.687,0,0,1,.059.424,1.713,1.713,0,0,1-3.206.846,16.921,16.921,0,1,1-15.2-9.518Z"/><path class="a" d="M3237.12,585.746a1.713,1.713,0,0,1,1.54-1.7h-1.486v-4.76a27.133,27.133,0,0,0,18.63-25.724,26.546,26.546,0,0,0-4.413-14.759,1.714,1.714,0,0,1-2.943,1.7,24.776,24.776,0,0,1,3.968,13.059,23.709,23.709,0,1,1-23.709-23.709,23.451,23.451,0,0,1,6.924,1.055,1.714,1.714,0,0,1,.8-3.234,1.689,1.689,0,0,1,.277.028,26.814,26.814,0,0,0-8-1.237,27.088,27.088,0,0,0-8.468,52.821v4.76h-1.488a1.712,1.712,0,0,1,.144,3.387h1.344v23.71a8.468,8.468,0,1,0,16.935,0v-23.71h1.342A1.716,1.716,0,0,1,3237.12,585.746Zm-3.333,25.4a5.081,5.081,0,1,1-10.161,0v-23.71h10.161Zm0-27.1h-10.161v-3.881a26.372,26.372,0,0,0,10.161,0Z"/><path class="a" d="M3233.279,544.5a10.07,10.07,0,0,0-4.572-1.1,10.186,10.186,0,1,0,7.3,3.109L3249.9,527.66a6.655,6.655,0,0,0,6.148-.574l15.85,14.793a6.7,6.7,0,0,0-.849,3.215,6.775,6.775,0,1,0,12.468-3.643l13.125-14.133a6.683,6.683,0,0,0,3.2.84,6.812,6.812,0,1,0-5.694-3.131l-13.125,14.132a6.595,6.595,0,0,0-6.825.232l-15.85-14.793a6.685,6.685,0,0,0,.849-3.214,6.774,6.774,0,0,0-13.549,0,6.707,6.707,0,0,0,1.541,4.247Zm-4.572,15.836a6.774,6.774,0,1,1,6.774-6.774A6.782,6.782,0,0,1,3228.707,560.335ZM3299.836,518a3.387,3.387,0,1,1-3.387,3.387A3.39,3.39,0,0,1,3299.836,518Zm-22.016,23.709a3.388,3.388,0,1,1-3.388,3.388A3.391,3.391,0,0,1,3277.82,541.706ZM3252.416,518a3.387,3.387,0,1,1-3.387,3.387A3.391,3.391,0,0,1,3252.416,518Z"/><path class="a" d="M3251.056,538.287c.118.168.222.344.335.515A1.72,1.72,0,0,0,3251.056,538.287Z"/><path class="a" d="M3248.175,539.983a1.685,1.685,0,0,0,.273.519c-.057-.093-.107-.188-.165-.28A1.554,1.554,0,0,1,3248.175,539.983Z"/><path class="a" d="M3249.8,541.173a1.716,1.716,0,0,0,1.589-2.371c-.113-.171-.217-.347-.335-.515a1.706,1.706,0,0,0-2.881,1.7,1.554,1.554,0,0,0,.108.239c.058.092.108.187.165.28A1.711,1.711,0,0,0,3249.8,541.173Z"/><path class="a" d="M3243.908,546.144c-.041-.083-.077-.168-.119-.25A1.737,1.737,0,0,0,3243.908,546.144Z"/><path class="a" d="M3247.055,544.874a1.686,1.686,0,0,0-.35-.677c.073.139.16.271.229.412C3246.977,544.7,3247.013,544.786,3247.055,544.874Z"/><path class="a" d="M3245.4,547.017a1.719,1.719,0,0,0,1.718-1.719,1.687,1.687,0,0,0-.059-.424c-.042-.088-.078-.178-.121-.265-.069-.141-.156-.273-.229-.412a1.71,1.71,0,0,0-2.916,1.7c.042.082.078.167.119.25A1.712,1.712,0,0,0,3245.4,547.017Z"/><path class="a" d="M3232.614,533.61c-.013,0-.025,0-.038,0q.387.075.769.165A1.7,1.7,0,0,0,3232.614,533.61Z"/><path class="a" d="M3232.3,537.017c-.017,0-.035-.005-.052-.009C3232.269,537.012,3232.286,537.013,3232.3,537.017Z"/><path class="a" d="M3230.9,535.329a1.718,1.718,0,0,0,1.356,1.679c.017,0,.035.005.052.009a1.768,1.768,0,0,0,.31.031,1.715,1.715,0,0,0,.731-3.269q-.382-.09-.769-.165A1.717,1.717,0,0,0,3230.9,535.329Z"/><path class="a" d="M3235.631,530.907a1.706,1.706,0,0,0,.557.179c-.1-.035-.208-.078-.312-.111C3235.795,530.949,3235.712,530.932,3235.631,530.907Z"/><path class="a" d="M3236.7,527.7c.138.043.279.075.417.121A1.712,1.712,0,0,0,3236.7,527.7Z"/><path class="a" d="M3234.708,529.392a1.713,1.713,0,0,0,.923,1.515c.081.025.164.042.245.068.1.033.207.076.312.111a1.7,1.7,0,0,0,.239.024,1.717,1.717,0,0,0,.694-3.288c-.138-.046-.279-.078-.417-.121a1.689,1.689,0,0,0-.277-.028A1.72,1.72,0,0,0,3234.708,529.392Z"/><path class="a" d="M3293.094,553.381a1.694,1.694,0,0,0,.515-.087l-.617.077C3293.026,553.373,3293.059,553.381,3293.094,553.381Z"/><path class="a" d="M3293.094,549.944a1.721,1.721,0,0,0-.4.052l.41-.051Z"/><path class="a" d="M3294.812,551.663a1.717,1.717,0,0,0-1.71-1.718l-.41.051a1.712,1.712,0,0,0,.3,3.375l.617-.077A1.713,1.713,0,0,0,3294.812,551.663Z"/><path class="a" d="M3218.573,584.027a1.736,1.736,0,0,0-.178.018h.356A1.764,1.764,0,0,0,3218.573,584.027Z"/><path class="a" d="M3218.573,587.465a1.713,1.713,0,0,0,.322-.033h-.644A1.7,1.7,0,0,0,3218.573,587.465Z"/><path class="a" d="M3220.292,585.746a1.714,1.714,0,0,0-1.541-1.7h-.356a1.712,1.712,0,0,0-.144,3.387h.644A1.717,1.717,0,0,0,3220.292,585.746Z"/><path class="a" d="M3239.16,587.432h-.644a1.586,1.586,0,0,0,.644,0Z"/><path class="a" d="M3238.838,584.027a1.772,1.772,0,0,0-.178.018h.356A1.741,1.741,0,0,0,3238.838,584.027Z"/><path class="a" d="M3240.557,585.746a1.713,1.713,0,0,0-1.541-1.7h-.356a1.713,1.713,0,0,0-.144,3.387h.644A1.717,1.717,0,0,0,3240.557,585.746Z"/><path class="a" d="M3253.342,586.974l.136-.051C3253.432,586.939,3253.386,586.954,3253.342,586.974Z"/><path class="a" d="M3254.973,589.982l-.668.248A1.715,1.715,0,0,0,3254.973,589.982Z"/><path class="a" d="M3255.765,588.538a1.7,1.7,0,0,0-2.287-1.615l-.136.051a1.716,1.716,0,0,0,.705,3.282,1.694,1.694,0,0,0,.258-.026l.668-.248A1.713,1.713,0,0,0,3255.765,588.538Z"/><path class="a" d="M3238.864,617.891c0,.012,0,.023,0,.036v-.072C3238.868,617.867,3238.864,617.879,3238.864,617.891Z"/><path class="a" d="M3240.583,616.172a1.671,1.671,0,0,0-.4.051h.792A1.665,1.665,0,0,0,3240.583,616.172Z"/><path class="a" d="M3242.3,617.891a1.715,1.715,0,0,0-1.323-1.668h-.792a1.713,1.713,0,0,0-1.319,1.632v.072a1.717,1.717,0,0,0,3.434-.036Z"/><path class="a" d="M3301.458,616.172a1.671,1.671,0,0,0-.4.051h.792A1.665,1.665,0,0,0,3301.458,616.172Z"/><path class="a" d="M3303.177,617.891a1.715,1.715,0,0,0-1.323-1.668h-.792a1.717,1.717,0,1,0,2.115,1.668Z"/><path class="a" d="M3303.208,562c0,.05.011.1.015.146v-.292C3303.219,561.9,3303.208,561.946,3303.208,562Z"/><path class="a" d="M3306.646,562a1.747,1.747,0,0,0-.036-.349v.7A1.754,1.754,0,0,0,3306.646,562Z"/><path class="a" d="M3304.927,563.715a1.719,1.719,0,0,0,1.683-1.37v-.7a1.714,1.714,0,0,0-3.387.2v.292A1.713,1.713,0,0,0,3304.927,563.715Z"/></g></svg>