<svg xmlns="http://www.w3.org/2000/svg" width="110.768" height="110.868" viewBox="0 0 110.768 110.868"><defs><style>.a{fill:#fff;}</style></defs><g transform="translate(-3595.241 -511.676)"><path class="a" d="M3622.425,545a27.215,27.215,0,0,0-27.184,27.184c0,9.306,4.427,19.312,13.158,29.74,1.3,1.549,2.59,2.985,3.831,4.294-5.637,1.539-9.022,4.3-9.022,7.53,0,5.712,9.9,8.795,19.216,8.795s19.216-3.083,19.216-8.795c0-3.224-3.384-5.989-9.017-7.528a88.665,88.665,0,0,0,6.97-8.29,1.626,1.626,0,0,0-2.618-1.929,87.284,87.284,0,0,1-8.4,9.7,1.62,1.62,0,0,0-.709.7c-2.347,2.306-4.323,4.018-5.443,4.953-1.109-.926-3.054-2.614-5.371-4.891a1.632,1.632,0,0,0-.815-.81c-7.364-7.406-17.747-20.2-17.747-33.475a23.932,23.932,0,0,1,47.864,0c0,5.763-1.964,11.986-5.837,18.5a1.626,1.626,0,0,0,2.795,1.663c4.176-7.021,6.293-13.8,6.293-20.16A27.214,27.214,0,0,0,3622.425,545Zm0,70.081a1.621,1.621,0,0,0,.995-.34,82.593,82.593,0,0,0,6.537-5.814c5.483,1.119,8.432,3.272,8.432,4.821,0,1.158-1.587,2.523-4.14,3.564a32.426,32.426,0,0,1-11.825,1.979c-9.745,0-15.965-3.283-15.965-5.543,0-1.552,2.95-3.7,8.436-4.822a82.5,82.5,0,0,0,6.535,5.815A1.622,1.622,0,0,0,3622.425,615.082Z"/><path class="a" d="M3613.074,567.8a1.626,1.626,0,0,0-2.011,1.114,11.822,11.822,0,1,0,4.291-6.206,1.626,1.626,0,0,0,1.946,2.6,8.491,8.491,0,0,1,5.124-1.7,8.556,8.556,0,1,1-8.236,6.2A1.625,1.625,0,0,0,3613.074,567.8Z"/><path class="a" d="M3699.885,564.89c0-2.576-2.421-4.722-6.61-5.983.827-.887,1.679-1.843,2.533-2.864,6.769-8.084,10.2-15.856,10.2-23.1a21.272,21.272,0,0,0-40.865-8.279,1.625,1.625,0,0,0,2.994,1.267,18.02,18.02,0,0,1,34.619,7.012c0,13.435-14.1,26.306-18.017,29.617-.863-.729-2.22-1.921-3.811-3.481a1.625,1.625,0,0,0-.723-.718c-5.614-5.652-13.483-15.368-13.483-25.418a1.625,1.625,0,1,0-3.251,0c0,7.243,3.432,15.015,10.2,23.1.855,1.02,1.706,1.976,2.533,2.863-4.191,1.26-6.61,3.4-6.61,5.984,0,2.176,1.765,4.095,4.972,5.4a30.709,30.709,0,0,0,20.346,0C3698.119,568.985,3699.885,567.066,3699.885,564.89Zm-15.145,3.883c-7.7,0-11.894-2.565-11.894-3.884,0-.858,1.91-2.43,5.988-3.3a63.386,63.386,0,0,0,4.911,4.358,1.626,1.626,0,0,0,1.99,0,63.36,63.36,0,0,0,4.912-4.358,14.9,14.9,0,0,1,4.492,1.626c.936.57,1.5,1.2,1.5,1.672C3696.633,566.208,3692.435,568.773,3684.74,568.773Z"/><path class="a" d="M3694.2,532.944a9.46,9.46,0,1,0-9.46,9.46A9.47,9.47,0,0,0,3694.2,532.944Zm-15.668,0a6.208,6.208,0,1,1,6.208,6.209A6.216,6.216,0,0,1,3678.532,532.944Z"/><path class="a" d="M3663.652,566.515a1.626,1.626,0,0,0,0-3.251h-.743a12.249,12.249,0,0,0-1.615.106,1.626,1.626,0,0,0,.213,3.238,1.746,1.746,0,0,0,.216-.014,9.011,9.011,0,0,1,1.187-.078h.742Z"/><path class="a" d="M3658.277,612.041h-.005l-2.15.01a1.625,1.625,0,0,0,.007,3.251h.008l2.147-.01a1.625,1.625,0,0,0-.007-3.251Z"/><path class="a" d="M3665.581,587.574a1.626,1.626,0,0,0,0-3.252h-2.147a1.626,1.626,0,0,0,0,3.252Z"/><path class="a" d="M3653.4,570.6a1.624,1.624,0,0,0,2.269-.372,8.909,8.909,0,0,1,1.2-1.359,1.626,1.626,0,0,0-2.205-2.39,12.279,12.279,0,0,0-1.639,1.852A1.627,1.627,0,0,0,3653.4,570.6Z"/><path class="a" d="M3666.866,612h0l-2.15.01a1.626,1.626,0,0,0,.008,3.252h.007l2.147-.01a1.626,1.626,0,0,0-.007-3.252Z"/><path class="a" d="M3649.688,612.08h-.008l-2.147.009a1.626,1.626,0,0,0,.007,3.252h.008l2.147-.01a1.625,1.625,0,0,0-.007-3.251Z"/><path class="a" d="M3657.3,585.957a1.626,1.626,0,0,0,.869-3,9,9,0,0,1-1.428-1.118,1.626,1.626,0,1,0-2.253,2.344,12.253,12.253,0,0,0,1.947,1.525A1.612,1.612,0,0,0,3657.3,585.957Z"/><path class="a" d="M3654.17,577.133a9.011,9.011,0,0,1-.164-1.714v-.09a1.625,1.625,0,0,0-1.606-1.645h-.02a1.626,1.626,0,0,0-1.625,1.607v.128a12.255,12.255,0,0,0,.225,2.336,1.626,1.626,0,0,0,1.594,1.315,1.6,1.6,0,0,0,.313-.031A1.624,1.624,0,0,0,3654.17,577.133Z"/><path class="a" d="M3674.17,587.574a1.626,1.626,0,0,0,0-3.252h-2.147a1.626,1.626,0,0,0,0,3.252Z"/><path class="a" d="M3699.264,590.534a1.626,1.626,0,0,0,1.008-2.9,15.521,15.521,0,0,0-1.99-1.334,1.626,1.626,0,1,0-1.6,2.833,12.287,12.287,0,0,1,1.571,1.053A1.618,1.618,0,0,0,3699.264,590.534Z"/><path class="a" d="M3692.4,611.778a12.136,12.136,0,0,1-1.621.115h-.3a1.626,1.626,0,0,0,.007,3.252h.312a15.387,15.387,0,0,0,2.051-.146,1.626,1.626,0,0,0-.445-3.221Z"/><path class="a" d="M3699.114,608.539a12.3,12.3,0,0,1-1.468,1.2,1.626,1.626,0,1,0,1.853,2.672,15.569,15.569,0,0,0,1.858-1.514,1.626,1.626,0,0,0-2.243-2.354Z"/><path class="a" d="M3704.576,600.7a1.626,1.626,0,0,0-1.9,1.3,12.2,12.2,0,0,1-.494,1.825,1.626,1.626,0,1,0,3.063,1.092,15.293,15.293,0,0,0,.626-2.315A1.625,1.625,0,0,0,3704.576,600.7Z"/><path class="a" d="M3702.54,592.438a1.626,1.626,0,0,0-.786,2.161,12.21,12.21,0,0,1,.663,1.771,1.626,1.626,0,1,0,3.125-.9,15.311,15.311,0,0,0-.842-2.249A1.626,1.626,0,0,0,3702.54,592.438Z"/><path class="a" d="M3682.759,587.574a1.626,1.626,0,0,0,0-3.252h-2.147a1.626,1.626,0,0,0,0,3.252Z"/><path class="a" d="M3675.455,611.962h-.005l-2.15.01a1.626,1.626,0,0,0,.008,3.252h.007l2.147-.01a1.626,1.626,0,0,0-.007-3.252Z"/><path class="a" d="M3690.728,587.574q.276,0,.548.012l.073,0a1.626,1.626,0,0,0,.071-3.25c-.23-.01-.463-.015-.692-.015H3689.2a1.625,1.625,0,0,0,0,3.251Z"/><path class="a" d="M3684.045,611.924h-.008l-2.148.009a1.626,1.626,0,0,0,.008,3.252h.007l2.147-.01a1.625,1.625,0,0,0-.006-3.251Z"/></g></svg>