<svg xmlns="http://www.w3.org/2000/svg" width="115.642" height="74" viewBox="0 0 115.642 74"><defs><style>.a{fill:#fff;}</style></defs><g transform="translate(-3908.592 -530.11)"><path class="a" d="M3986.338,571.8l-9.844-4.375a1.93,1.93,0,0,1-1.144-1.762v-2.7a14.347,14.347,0,0,0,5.432-11.238v-3.8a3.51,3.51,0,0,0,1.81-3.068v-.37a14.384,14.384,0,0,0-14.368-14.367H3964.6a14.384,14.384,0,0,0-14.368,14.367v3.351a3.554,3.554,0,0,0,1.352,2.847,3.4,3.4,0,0,0,.459.3v.748a14.347,14.347,0,0,0,5.431,11.238v2.7a1.928,1.928,0,0,1-1.144,1.761l-9.844,4.375a8.945,8.945,0,0,0-5.306,8.166v22.452a1.693,1.693,0,1,0,3.387,0V579.963a5.351,5.351,0,0,1,.035-.582l4.536,4.535a3.72,3.72,0,0,1,1.094,2.644v15.855a1.694,1.694,0,1,0,3.388,0V586.56a7.078,7.078,0,0,0-2.087-5.039l-5.407-5.408a5.546,5.546,0,0,1,1.737-1.22l9.677-4.3,7.177,7.177v24.646a1.694,1.694,0,1,0,3.388,0V577.769l7.177-7.177,9.677,4.3a5.532,5.532,0,0,1,1.737,1.221l-5.408,5.407a7.083,7.083,0,0,0-2.087,5.039v15.855a1.694,1.694,0,1,0,3.388,0V586.56a3.716,3.716,0,0,1,1.095-2.644l4.536-4.535a5.608,5.608,0,0,1,.034.582v22.452a1.694,1.694,0,1,0,3.388,0V579.963A8.945,8.945,0,0,0,3986.338,571.8Zm-19.925,2.874-6.3-6.3a5.3,5.3,0,0,0,.749-2.713v-.689a14.348,14.348,0,0,0,11.1,0v.689a5.307,5.307,0,0,0,.75,2.714Zm0-11.972a10.992,10.992,0,0,1-10.98-10.98v-.762a10.025,10.025,0,0,0,3.076-2,1.694,1.694,0,0,0-2.3-2.49,6.081,6.081,0,0,1-2.515,1.5.341.341,0,0,1-.045.009.347.347,0,0,1-.029-.154v-3.35a10.992,10.992,0,0,1,10.98-10.98h3.621a10.992,10.992,0,0,1,10.98,10.98v.369a.109.109,0,0,1-.076.111c-10.144,2-15.232-1.772-16.948-3.489a1.694,1.694,0,0,0-2.4,2.4c5.26,5.26,12.936,5.355,17.609,4.793v3.062A10.992,10.992,0,0,1,3966.414,562.7Z"/><path class="a" d="M3939.138,562.584v-3.622a12.552,12.552,0,0,0-5.757-10.548,7.125,7.125,0,1,0-13.6,0,12.555,12.555,0,0,0-5.756,10.548v3.621a12.552,12.552,0,0,0,5.431,10.332v3.725a1.917,1.917,0,0,1-1.065,1.724l-5.859,2.929a7.087,7.087,0,0,0-3.939,6.374v14.748a1.694,1.694,0,1,0,3.388,0V588.4l2.76,2.76a3.714,3.714,0,0,1,1.095,2.643v8.613a1.693,1.693,0,1,0,3.387,0V593.8a7.076,7.076,0,0,0-2.087-5.038l-3.84-3.841c-.019-.019-.039-.035-.058-.052a3.788,3.788,0,0,1,.809-.547l5.859-2.93a5.313,5.313,0,0,0,.84-.524l4.142,4.142v17.4a1.694,1.694,0,1,0,3.388,0V585.011l4.142-4.141a5.4,5.4,0,0,0,.84.524l1.616.808a1.694,1.694,0,0,0,1.515-3.03l-1.616-.808a1.917,1.917,0,0,1-1.065-1.724v-3.725A12.55,12.55,0,0,0,3939.138,562.584Zm-12.557-20.034a3.742,3.742,0,0,1,3.738,3.738,3.866,3.866,0,0,1-.059.667,12.571,12.571,0,0,0-7.352,0,3.717,3.717,0,0,1,3.673-4.4Zm0,7.243a9.18,9.18,0,0,1,9.17,9.169v.614a10.637,10.637,0,0,1-11.436-3.441,1.694,1.694,0,0,0-2.553-.181,11.07,11.07,0,0,1-4.344,2.773A9.177,9.177,0,0,1,3926.581,549.793Zm0,32.121L3922.667,578a5.384,5.384,0,0,0,.177-1.36v-2.068a12.581,12.581,0,0,0,7.475,0v2.068a5.34,5.34,0,0,0,.177,1.36Zm0-10.162a9.179,9.179,0,0,1-9.169-9.169v-.351a13.58,13.58,0,0,0,5.443-2.712,15.308,15.308,0,0,0,3.141,2.287,13.477,13.477,0,0,0,6.474,1.671,14.212,14.212,0,0,0,3.266-.391A9.18,9.18,0,0,1,3926.581,571.752Z"/><path class="a" d="M4020.3,577.672l-9.481-4.74a1.917,1.917,0,0,1-1.065-1.724v-2.4a10.722,10.722,0,0,0,3.621-8.035v-1.929l.117,0a1.7,1.7,0,0,0,1.694-1.694v-3.621a10.759,10.759,0,0,0-10.747-10.747h-3.621a10.759,10.759,0,0,0-10.747,10.747v3.621a1.7,1.7,0,0,0,1.694,1.694l.117,0v1.93a10.721,10.721,0,0,0,3.621,8.035v2.4a1.916,1.916,0,0,1-1.065,1.723,1.694,1.694,0,1,0,1.515,3.031,5.488,5.488,0,0,0,.84-.525l4.142,4.142v22.836a1.694,1.694,0,1,0,3.387,0V579.58l4.142-4.142a5.4,5.4,0,0,0,.84.524l9.174,4.587-2.783,2.782a7.08,7.08,0,0,0-2.087,5.039v14.045a1.694,1.694,0,1,0,3.388,0V588.37a3.715,3.715,0,0,1,1.095-2.643l2.636-2.636a3.816,3.816,0,0,1,.123.954v18.37a1.694,1.694,0,1,0,3.388,0v-18.37A7.087,7.087,0,0,0,4020.3,577.672Zm-26.841-22.563V553.53h0a7.368,7.368,0,0,1,7.359-7.359h3.621a7.368,7.368,0,0,1,7.359,7.359v1.882a25.9,25.9,0,0,1-11.851-3.291,1.693,1.693,0,0,0-2.138.212A11.086,11.086,0,0,1,3993.455,555.109Zm9.169,21.373-3.914-3.914a5.377,5.377,0,0,0,.177-1.36v-.36a10.745,10.745,0,0,0,7.475,0v.36a5.334,5.334,0,0,0,.177,1.36Zm0-8.35a7.367,7.367,0,0,1-7.358-7.359v-2.731h0a14.354,14.354,0,0,0,3.975-2.426,30.1,30.1,0,0,0,10.742,3.053v2.1A7.368,7.368,0,0,1,4002.624,568.132Z"/></g></svg>