<svg xmlns="http://www.w3.org/2000/svg" width="262.375" height="48.885" viewBox="0 0 262.375 48.885"><defs><style>.a{fill:#231f20;}</style></defs><g transform="translate(-3577.023 -4737.379)"><path class="a" d="M3650.61,4760.856a13.171,13.171,0,0,1,3.435-9.476,10.41,10.41,0,0,1,7.869-3.279,13.662,13.662,0,0,1,3.953.449,12.832,12.832,0,0,1,2.917,1.173l-.777,2.089a9.966,9.966,0,0,0-5.238-1.554,10.722,10.722,0,0,0-4.4.777,7.816,7.816,0,0,0-2.875,2.193,11.684,11.684,0,0,0-2.346,7.662q0,4.938,2.312,7.75a7.8,7.8,0,0,0,6.4,2.864,12.937,12.937,0,0,0,6.421-1.346l.672,2.054a11.034,11.034,0,0,1-4.487,1.293,25.358,25.358,0,0,1-3.133.157,10.2,10.2,0,0,1-3.961-.855,10.055,10.055,0,0,1-3.537-2.476q-3.228-3.486-3.228-9.475"/><path class="a" d="M3670.814,4760.856q0-6.04,3.4-9.511a11.678,11.678,0,0,1,16.155,0q3.417,3.469,3.418,9.511,0,6.092-3.418,9.578a11.72,11.72,0,0,1-16.155,0q-3.4-3.486-3.4-9.578m2.537,0a11.657,11.657,0,0,0,2.451,7.784,8.823,8.823,0,0,0,13.013,0,13.641,13.641,0,0,0,0-15.551,8.892,8.892,0,0,0-13.013,0,11.63,11.63,0,0,0-2.451,7.767"/><path class="a" d="M3695.368,4750.725v-2.089h18.07v2.089h-7.819v22.4H3703.2v-22.4Z"/><path class="a" d="M3716.077,4750.725v-2.089h18.07v2.089h-7.819v22.4h-2.416v-22.4Z"/><path class="a" d="M3735.711,4760.856q0-6.04,3.4-9.511a11.678,11.678,0,0,1,16.155,0q3.419,3.469,3.418,9.511,0,6.092-3.418,9.578a11.72,11.72,0,0,1-16.155,0q-3.4-3.486-3.4-9.578m2.538,0a11.657,11.657,0,0,0,2.451,7.784,8.825,8.825,0,0,0,13.014,0,13.647,13.647,0,0,0,0-15.551,8.894,8.894,0,0,0-13.014,0,11.63,11.63,0,0,0-2.451,7.767"/><path class="a" d="M3763.842,4773.127v-24.491h1.943a106.168,106.168,0,0,1,6.743,8.406,126.656,126.656,0,0,1,7.658,11.529v-19.935h2.416v24.491h-2.048a142.361,142.361,0,0,0-9.346-14.221q-2.674-3.729-4.95-6.421v20.642Z"/><rect class="a" width="2.415" height="24.491" transform="translate(3788.811 4748.636)"/><path class="a" d="M3797.459,4773.127v-24.491h2.414v11.408q3.954-3.554,7.311-6.988t4.2-4.42h2.9q-5.832,6.229-11.665,11.511a40.374,40.374,0,0,1,7.025,5.973,32.659,32.659,0,0,1,5.452,7.007h-2.676a40.51,40.51,0,0,0-9.25-9.942,27.769,27.769,0,0,0-3.3-2.174v12.116Z"/><path class="a" d="M3817.445,4773.127q4.693-12.633,6.643-17.208t3.262-7.283h2.124q3.364,7.018,7.232,17.408,1.242,3.288,2.692,7.083h-2.641q-.983-2.592-2.451-6.679H3822.4q-.69,1.819-2.433,6.679Zm5.695-8.768h10.425q-2.624-7.111-5.23-12.979-2.4,5.4-5.2,12.979"/><path class="a" d="M3625.414,4751.269a11.37,11.37,0,0,0-9.262-3.35c0-.02,0-.039,0-.058a10.345,10.345,0,1,0-20.688,0c0,.021,0,.044,0,.066a11.371,11.371,0,0,0-9.324,3.342,11.746,11.746,0,0,0,0,16.457,11.627,11.627,0,0,0,1.37,1.187,9.263,9.263,0,0,0,2.66,6.259,9.035,9.035,0,0,0,10.509,1.74,25.77,25.77,0,0,0-.057-3.92,18.388,18.388,0,0,0-3.789-9.389l-.185-.278c.119.061.238.132.36.207a13.752,13.752,0,0,1,5.477,6.575c.061.148.112.293.168.439l.014.021,3.109-8.114,3.107,8.114.014-.021c.056-.146.108-.291.168-.439a13.756,13.756,0,0,1,5.478-6.575c.121-.075.24-.146.359-.207l-.184.278a18.371,18.371,0,0,0-3.788,9.389,25.525,25.525,0,0,0-.058,3.92,9.036,9.036,0,0,0,10.509-1.74,9.258,9.258,0,0,0,2.66-6.259,11.711,11.711,0,0,0,1.369-17.644"/><path class="a" d="M3621.715,4780.109c-2.479,2.393-4.969,4.875-8.649,4.394-3.259-.427-6.375-2.879-5.9-6.447a15.387,15.387,0,0,1-1.677.093,17.19,17.19,0,0,1-2.274-.157c-.6,6.875,8.079,9.642,15.14,7.63,2.874-.819,5.193-2.9,7.274-4.914,1.221-1.183,4.176-5.044,6.385-5.78.744-.247,1.79-.253,2.523-.523-5.2-1.312-9,2.022-12.82,5.7"/><path class="a" d="M3589.843,4780.109c2.479,2.393,4.97,4.875,8.649,4.394,3.259-.427,6.376-2.879,5.9-6.447a15.37,15.37,0,0,0,1.677.093,17.171,17.171,0,0,0,2.273-.157c.6,6.875-8.079,9.642-15.14,7.63-2.872-.819-5.193-2.9-7.273-4.914-1.222-1.183-4.176-5.044-6.385-5.78-.744-.247-1.79-.253-2.524-.523,5.2-1.312,9,2.022,12.82,5.7"/></g></svg>