<?xml version="1.0" encoding="utf-8"?>
<!-- Generator: Adobe Illustrator 18.1.1, SVG Export Plug-In . SVG Version: 6.00 Build 0)  -->
<svg version="1.1" id="Layer_1" xmlns="http://www.w3.org/2000/svg" xmlns:xlink="http://www.w3.org/1999/xlink" x="0px" y="0px"
	 viewBox="0 0 200 80" enable-background="new 0 0 200 80" xml:space="preserve">
<g>
	<polygon fill="#010101" points="119.3,26.5 105.9,26.5 105.9,8.2 101.3,8.2 101.3,49.8 105.9,49.8 105.9,30.9 119.3,30.9 
		119.3,49.8 123.9,49.8 123.9,8.2 119.3,8.2 	"/>
	<polygon fill="#010101" points="128.4,12.6 137.4,12.6 137.4,49.8 142,49.8 142,12.6 150.9,12.6 150.9,8.2 128.4,8.2 	"/>
	<polygon fill="#010101" points="165.3,26.4 178.6,8.2 172.9,8.2 162.4,23.1 160,26.5 160,8.2 155.4,8.2 155.4,49.8 160,49.8 
		160,33.7 162.4,30.4 174.7,49.8 180.2,49.8 	"/>
</g>
<g>
	<g>
		<polygon fill="#010101" points="10.3,49.7 32,68.9 35.1,68.9 10.3,47 		"/>
		<polygon fill="#010101" points="10.3,33.8 50,68.9 53.1,68.9 10.3,31.1 		"/>
		<polygon fill="#010101" points="71,68.9 10.3,15.3 10.3,18 67.9,68.9 		"/>
		<polygon fill="#010101" points="80,68.9 10.3,7.4 10.3,10.1 76.9,68.9 		"/>
		<polygon fill="#010101" points="10.3,65.5 14,68.9 17.1,68.9 10.3,62.8 		"/>
		<polygon fill="#010101" points="10.3,57.6 23,68.9 26.1,68.9 10.3,54.9 		"/>
		<polygon fill="#010101" points="10.3,41.8 41,68.9 44.1,68.9 10.3,39 		"/>
		<polygon fill="#010101" points="10.3,25.9 58.9,68.9 62,68.9 10.3,23.2 		"/>
	</g>
	<g>
		<polygon fill="#1678BE" points="62,68.9 83.8,49.7 83.8,47 58.9,68.9 		"/>
		<polygon fill="#1678BE" points="44.1,68.9 83.8,33.8 83.8,31.1 41,68.9 		"/>
		<polygon fill="#1678BE" points="83.8,15.3 23,68.9 26.1,68.9 83.8,18 		"/>
		<polygon fill="#1678BE" points="83.8,7.4 14,68.9 17.1,68.9 83.8,10.1 		"/>
		<polygon fill="#1678BE" points="80,68.9 83.8,65.5 83.8,62.8 76.9,68.9 		"/>
		<polygon fill="#1678BE" points="71,68.9 83.8,57.6 83.8,54.9 67.9,68.9 		"/>
		<polygon fill="#1678BE" points="53,68.9 83.8,41.8 83.8,39 50,68.9 		"/>
		<polygon fill="#1678BE" points="35.1,68.9 83.8,25.9 83.8,23.2 32,68.9 		"/>
	</g>
</g>
<g>
	<g>
		<path fill="#010101" d="M104.5,61.2v1h-2.4V69h-1.2v-7.7H104.5z"/>
		<path fill="#010101" d="M105.5,63.7c0-1.2,0-1.9-0.1-2.4h1.1l0.1,1h0c0.4-0.8,1-1.1,1.6-1.1c1.4,0,2.2,1.4,2.2,4
			c0,2.9-1.2,4-2.4,4c-0.7,0-1.2-0.5-1.4-0.9h0v3.8h-1.2V63.7z M106.7,66.2c0,0.2,0,0.4,0.1,0.6c0.2,1.1,0.8,1.3,1.1,1.3
			c1,0,1.4-1.4,1.4-3c0-1.6-0.4-2.9-1.4-2.9c-0.6,0-1.1,0.7-1.1,1.4c0,0.2,0,0.4,0,0.6V66.2z"/>
		<path fill="#010101" d="M112.3,61.2l1,4.4c0.1,0.6,0.2,1.1,0.3,1.6h0c0.1-0.4,0.2-1,0.3-1.6l0.9-4.5h1.2l-1.3,5
			c-0.5,1.9-1,3.8-1.9,5c-0.5,0.7-1.1,1-1.4,1.2l-0.5-1c0.4-0.2,0.8-0.5,1.1-1c0.3-0.4,0.6-0.9,0.7-1.3c0.1-0.2,0.1-0.3,0.1-0.4
			c0-0.1,0-0.2,0-0.3l-2-7.1H112.3z"/>
		<path fill="#010101" d="M121.9,61.2V69h-1.2v-6.7h-2.2V69h-1.2v-7.7H121.9z"/>
		<path fill="#010101" d="M128.3,61.2V69h-1.2v-6.7h-2.2V69h-1.2v-7.7H128.3z"/>
		<path fill="#010101" d="M134.1,67.2c0,0.6,0,1.3,0.1,1.8h-1.1l-0.1-0.8h0c-0.3,0.6-0.9,0.9-1.6,0.9c-1,0-1.8-0.9-1.8-2.2
			c0-2,1.6-2.8,3.3-2.8v-0.2c0-1-0.3-1.7-1.2-1.7c-0.5,0-0.9,0.1-1.3,0.4l-0.3-0.9c0.3-0.2,1-0.5,1.8-0.5c1.6,0,2.2,1,2.2,2.7V67.2z
			 M132.9,65c-0.6,0-2.1,0.1-2.1,1.8c0,1,0.5,1.4,0.9,1.4c0.5,0,1-0.4,1.1-1.2c0-0.1,0-0.3,0-0.4V65z"/>
		<path fill="#010101" d="M139.6,61.2v3.4h0.2l2-3.4h1.4l-2.4,3.5c1.1,0.2,1.6,1.1,1.9,2.2c0.2,0.6,0.4,1.5,0.6,2.1H142
			c-0.2-0.5-0.4-1.1-0.6-1.8c-0.3-1.1-0.7-1.7-1.7-1.7h-0.1V69h-1.2v-7.7H139.6z"/>
		<path fill="#010101" d="M149,65.1c0,3-1.4,4-2.6,4c-1.4,0-2.5-1.3-2.5-4c0-2.8,1.3-4,2.6-4C147.9,61.1,149,62.4,149,65.1z
			 M145.1,65.1c0,1.3,0.2,3,1.3,3c1.1,0,1.3-1.8,1.3-3c0-1.2-0.2-3-1.3-3C145.3,62.1,145.1,63.9,145.1,65.1z"/>
		<path fill="#010101" d="M150.6,61.2h1.4l1,3.4c0.3,0.9,0.4,1.5,0.7,2.5h0c0.3-1,0.4-1.6,0.7-2.5l1-3.4h1.5l0.5,7.7h-1.2l-0.2-3.3
			c0-1-0.1-1.8-0.1-3.3h0c-0.2,0.8-0.4,1.8-0.8,3l-1.1,3.6h-0.9l-1-3.4c-0.3-1.1-0.6-2.2-0.8-3.1h0c0,1.2,0,2.2-0.1,3.3l-0.1,3.3
			H150L150.6,61.2z"/>
		<path fill="#010101" d="M163.6,61.2V69h-1.2v-6.7h-2.2V69h-1.2v-7.7H163.6z"/>
		<path fill="#010101" d="M169.4,67.2c0,0.6,0,1.3,0.1,1.8h-1.1l-0.1-0.8h0c-0.3,0.6-0.9,0.9-1.6,0.9c-1,0-1.8-0.9-1.8-2.2
			c0-2,1.6-2.8,3.3-2.8v-0.2c0-1-0.3-1.7-1.2-1.7c-0.5,0-0.9,0.1-1.3,0.4l-0.3-0.9c0.3-0.2,1-0.5,1.8-0.5c1.6,0,2.2,1,2.2,2.7V67.2z
			 M168.2,65c-0.6,0-2.1,0.1-2.1,1.8c0,1,0.5,1.4,0.9,1.4c0.5,0,1-0.4,1.1-1.2c0-0.1,0-0.3,0-0.4V65z"/>
		<path fill="#010101" d="M172.4,61.2v3.3h2.3v-3.3h1.2V69h-1.2v-3.4h-2.3V69h-1.2v-7.7H172.4z"/>
		<path fill="#010101" d="M178.7,61.2v2.7c0,1.3,0,2.5-0.1,3.7h0c0.4-1,0.8-2.1,1.2-3l1.3-3.3h1.3V69h-1.1v-2.5c0-1.7,0-2.6,0.1-3.8
			h0c-0.3,1-0.6,1.8-0.9,2.7c-0.3,0.6-1,2.4-1.5,3.6h-1.3v-7.7H178.7z"/>
		<path fill="#010101" d="M185.2,61.2v2.7c0,1.3,0,2.5-0.1,3.7h0c0.4-1,0.8-2.1,1.2-3l1.3-3.3h1.3V69h-1.1v-2.5c0-1.7,0-2.6,0.1-3.8
			h0c-0.3,1-0.6,1.8-0.9,2.7c-0.3,0.6-1,2.4-1.5,3.6h-1.3v-7.7H185.2z M185.5,58.3c0.1,0.7,0.4,1.1,0.9,1.1c0.6,0,0.9-0.4,1-1.1h0.9
			c-0.1,1.3-0.8,1.8-1.8,1.8c-1,0-1.6-0.5-1.8-1.8H185.5z"/>
	</g>
</g>
</svg>
