<svg xmlns="http://www.w3.org/2000/svg" width="178.6" height="64.9" viewBox="0 0 178.6 64.9">
  <g id="logo" transform="translate(-10.3 -7.4)">
    <g id="Сгруппировать_125" data-name="Сгруппировать 125">
      <path id="Контур_93" data-name="Контур 93" d="M119.3,26.5H105.9V8.2h-4.6V49.8h4.6V30.9h13.4V49.8h4.6V8.2h-4.6Z" fill="#fff"/>
      <path id="Контур_94" data-name="Контур 94" d="M128.4,12.6h9V49.8H142V12.6h8.9V8.2H128.4Z" fill="#fff"/>
      <path id="Контур_95" data-name="Контур 95" d="M165.3,26.4,178.6,8.2h-5.7L162.4,23.1,160,26.5V8.2h-4.6V49.8H160V33.7l2.4-3.3,12.3,19.4h5.5Z" fill="#fff"/>
    </g>
    <g id="Сгруппировать_128" data-name="Сгруппировать 128">
      <g id="Сгруппировать_126" data-name="Сгруппировать 126">
        <path id="Контур_96" data-name="Контур 96" d="M10.3,49.7,32,68.9h3.1L10.3,47Z" fill="#fff"/>
        <path id="Контур_97" data-name="Контур 97" d="M10.3,33.8,50,68.9h3.1L10.3,31.1Z" fill="#fff"/>
        <path id="Контур_98" data-name="Контур 98" d="M71,68.9,10.3,15.3V18L67.9,68.9Z" fill="#fff"/>
        <path id="Контур_99" data-name="Контур 99" d="M80,68.9,10.3,7.4v2.7L76.9,68.9Z" fill="#fff"/>
        <path id="Контур_100" data-name="Контур 100" d="M10.3,65.5,14,68.9h3.1l-6.8-6.1Z" fill="#fff"/>
        <path id="Контур_101" data-name="Контур 101" d="M10.3,57.6,23,68.9h3.1l-15.8-14Z" fill="#fff"/>
        <path id="Контур_102" data-name="Контур 102" d="M10.3,41.8,41,68.9h3.1L10.3,39Z" fill="#fff"/>
        <path id="Контур_103" data-name="Контур 103" d="M10.3,25.9l48.6,43H62L10.3,23.2Z" fill="#fff"/>
      </g>
      <g id="Сгруппировать_127" data-name="Сгруппировать 127">
        <path id="Контур_104" data-name="Контур 104" d="M62,68.9,83.8,49.7V47L58.9,68.9Z" fill="#fff"/>
        <path id="Контур_105" data-name="Контур 105" d="M44.1,68.9,83.8,33.8V31.1L41,68.9Z" fill="#fff"/>
        <path id="Контур_106" data-name="Контур 106" d="M83.8,15.3,23,68.9h3.1L83.8,18Z" fill="#fff"/>
        <path id="Контур_107" data-name="Контур 107" d="M83.8,7.4,14,68.9h3.1L83.8,10.1Z" fill="#fff"/>
        <path id="Контур_108" data-name="Контур 108" d="M80,68.9l3.8-3.4V62.8l-6.9,6.1Z" fill="#fff"/>
        <path id="Контур_109" data-name="Контур 109" d="M71,68.9,83.8,57.6V54.9l-15.9,14Z" fill="#fff"/>
        <path id="Контур_110" data-name="Контур 110" d="M53,68.9,83.8,41.8V39L50,68.9Z" fill="#fff"/>
        <path id="Контур_111" data-name="Контур 111" d="M35.1,68.9l48.7-43V23.2L32,68.9Z" fill="#fff"/>
      </g>
    </g>
    <g id="Сгруппировать_130" data-name="Сгруппировать 130">
      <g id="Сгруппировать_129" data-name="Сгруппировать 129">
        <path id="Контур_112" data-name="Контур 112" d="M104.5,61.2v1h-2.4V69h-1.2V61.3h3.6Z" fill="#fff"/>
        <path id="Контур_113" data-name="Контур 113" d="M105.5,63.7a14.228,14.228,0,0,0-.1-2.4h1.1l.1,1h0a1.755,1.755,0,0,1,1.6-1.1c1.4,0,2.2,1.4,2.2,4,0,2.9-1.2,4-2.4,4a1.624,1.624,0,0,1-1.4-.9h0v3.8h-1.2V63.7Zm1.2,2.5a1.268,1.268,0,0,0,.1.6c.2,1.1.8,1.3,1.1,1.3,1,0,1.4-1.4,1.4-3s-.4-2.9-1.4-2.9c-.6,0-1.1.7-1.1,1.4v2.6Z" fill="#fff"/>
        <path id="Контур_114" data-name="Контур 114" d="M112.3,61.2l1,4.4c.1.6.2,1.1.3,1.6h0c.1-.4.2-1,.3-1.6l.9-4.5H116l-1.3,5a15.357,15.357,0,0,1-1.9,5,4.422,4.422,0,0,1-1.4,1.2l-.5-1a2.591,2.591,0,0,0,1.1-1,4.15,4.15,0,0,0,.7-1.3.756.756,0,0,0,.1-.4v-.3l-2-7.1h1.5Z" fill="#fff"/>
        <path id="Контур_115" data-name="Контур 115" d="M121.9,61.2V69h-1.2V62.3h-2.2V69h-1.2V61.3h4.6Z" fill="#fff"/>
        <path id="Контур_116" data-name="Контур 116" d="M128.3,61.2V69h-1.2V62.3h-2.2V69h-1.2V61.3h4.6Z" fill="#fff"/>
        <path id="Контур_117" data-name="Контур 117" d="M134.1,67.2a10.282,10.282,0,0,0,.1,1.8h-1.1l-.1-.8h0a1.7,1.7,0,0,1-1.6.9,1.974,1.974,0,0,1-1.8-2.2c0-2,1.6-2.8,3.3-2.8v-.2c0-1-.3-1.7-1.2-1.7a2.01,2.01,0,0,0-1.3.4l-.3-.9a3.522,3.522,0,0,1,1.8-.5c1.6,0,2.2,1,2.2,2.7v3.3ZM132.9,65c-.6,0-2.1.1-2.1,1.8,0,1,.5,1.4.9,1.4.5,0,1-.4,1.1-1.2V65Z" fill="#fff"/>
        <path id="Контур_118" data-name="Контур 118" d="M139.6,61.2v3.4h.2l2-3.4h1.4l-2.4,3.5c1.1.2,1.6,1.1,1.9,2.2.2.6.4,1.5.6,2.1H142a18.883,18.883,0,0,1-.6-1.8c-.3-1.1-.7-1.7-1.7-1.7h-.1V69h-1.2V61.3h1.2Z" fill="#fff"/>
        <path id="Контур_119" data-name="Контур 119" d="M149,65.1c0,3-1.4,4-2.6,4-1.4,0-2.5-1.3-2.5-4,0-2.8,1.3-4,2.6-4C147.9,61.1,149,62.4,149,65.1Zm-3.9,0c0,1.3.2,3,1.3,3s1.3-1.8,1.3-3-.2-3-1.3-3S145.1,63.9,145.1,65.1Z" fill="#fff"/>
        <path id="Контур_120" data-name="Контур 120" d="M150.6,61.2H152l1,3.4c.3.9.4,1.5.7,2.5h0c.3-1,.4-1.6.7-2.5l1-3.4h1.5l.5,7.7h-1.2l-.2-3.3c0-1-.1-1.8-.1-3.3h0c-.2.8-.4,1.8-.8,3L154,68.9h-.9l-1-3.4c-.3-1.1-.6-2.2-.8-3.1h0c0,1.2,0,2.2-.1,3.3l-.1,3.3H150Z" fill="#fff"/>
        <path id="Контур_121" data-name="Контур 121" d="M163.6,61.2V69h-1.2V62.3h-2.2V69H159V61.3h4.6Z" fill="#fff"/>
        <path id="Контур_122" data-name="Контур 122" d="M169.4,67.2a10.282,10.282,0,0,0,.1,1.8h-1.1l-.1-.8h0a1.7,1.7,0,0,1-1.6.9,1.974,1.974,0,0,1-1.8-2.2c0-2,1.6-2.8,3.3-2.8v-.2c0-1-.3-1.7-1.2-1.7a2.01,2.01,0,0,0-1.3.4l-.3-.9a3.522,3.522,0,0,1,1.8-.5c1.6,0,2.2,1,2.2,2.7v3.3ZM168.2,65c-.6,0-2.1.1-2.1,1.8,0,1,.5,1.4.9,1.4.5,0,1-.4,1.1-1.2V65Z" fill="#fff"/>
        <path id="Контур_123" data-name="Контур 123" d="M172.4,61.2v3.3h2.3V61.2h1.2V69h-1.2V65.6h-2.3V69h-1.2V61.3h1.2Z" fill="#fff"/>
        <path id="Контур_124" data-name="Контур 124" d="M178.7,61.2v2.7c0,1.3,0,2.5-.1,3.7h0c.4-1,.8-2.1,1.2-3l1.3-3.3h1.3V69h-1.1V66.5c0-1.7,0-2.6.1-3.8h0c-.3,1-.6,1.8-.9,2.7-.3.6-1,2.4-1.5,3.6h-1.3V61.3h1Z" fill="#fff"/>
        <path id="Контур_125" data-name="Контур 125" d="M185.2,61.2v2.7c0,1.3,0,2.5-.1,3.7h0c.4-1,.8-2.1,1.2-3l1.3-3.3h1.3V69h-1.1V66.5c0-1.7,0-2.6.1-3.8h0c-.3,1-.6,1.8-.9,2.7-.3.6-1,2.4-1.5,3.6h-1.3V61.3h1Zm.3-2.9c.1.7.4,1.1.9,1.1.6,0,.9-.4,1-1.1h.9c-.1,1.3-.8,1.8-1.8,1.8s-1.6-.5-1.8-1.8Z" fill="#fff"/>
      </g>
    </g>
  </g>
</svg>
