<svg xmlns="http://www.w3.org/2000/svg" width="29.501" height="29.5" viewBox="0 0 29.501 29.5"><defs><style>.a{stroke:#000;stroke-miterlimit:10;stroke-width:0.5px;}</style></defs><g transform="translate(-4101.568 -25.299)"><path class="a" d="M4130.794,39.2a14.483,14.483,0,1,0-15.378,15.321q.455.027.906.027a14.456,14.456,0,0,0,4.47-.7,4.152,4.152,0,0,0,2.574-2.428,4.314,4.314,0,0,0-.117-3.47l0,0,1.237-1.237a1.458,1.458,0,0,0-.3-2.293l-4.168-2.4a1.46,1.46,0,0,0-1.757.232l-1.078,1.079a.486.486,0,0,1-.65.033,23.971,23.971,0,0,1-3.525-3.525.486.486,0,0,1,.033-.65l1.078-1.079a1.459,1.459,0,0,0,.233-1.757l-2.4-4.167a1.457,1.457,0,0,0-2.292-.3l-1.237,1.237c-.91.909-.935,2.547-.072,4.611a19.784,19.784,0,0,0,4.267,6.022,19.774,19.774,0,0,0,6.022,4.267,7.107,7.107,0,0,0,2.675.63,3.135,3.135,0,0,0,1.217-.222,3.465,3.465,0,0,1,.045,2.679,3.306,3.306,0,0,1-2.048,1.934,13.648,13.648,0,1,1,8-6.882.425.425,0,1,0,.759.38A14.534,14.534,0,0,0,4130.794,39.2Zm-8.143,8.143c-.64.64-1.983.6-3.683-.111a18.941,18.941,0,0,1-5.749-4.084,18.958,18.958,0,0,1-4.084-5.749c-.711-1.7-.752-3.043-.111-3.684l.543-.543.161.279a.425.425,0,1,0,.736-.424l-.275-.477.071-.071a.6.6,0,0,1,.428-.178.552.552,0,0,1,.081.005.6.6,0,0,1,.447.3l2.4,4.167a.609.609,0,0,1-.1.733l-.3.3-1.806-3.137a.425.425,0,0,0-.736.424l1.92,3.335-.154.154a1.334,1.334,0,0,0-.093,1.785A24.888,24.888,0,0,0,4116,44.021a1.335,1.335,0,0,0,1.785-.093l.1-.1.737.421a.425.425,0,1,0,.421-.738l-.535-.305.359-.36a.611.611,0,0,1,.732-.1l4.168,2.4a.606.606,0,0,1,.126.955l-.111.112-3.162-1.805a.425.425,0,0,0-.421.738l2.96,1.689Z"/></g></svg>